# xmcd
#
# Track frame offsets:
# 150
# 16475
# 30975
# 47890
# 61250
# 77665
# 92262
# 104010
# 116362
# 127927
# 137852
# 154712
# 165405
# 181232
# 196485
# 208667
# 224307
# 237182
# 248335
# 260127
#
# Disc length: 3644 seconds
#
#
# Revision: 2
# Processed by: cddbd v1.5.2PL0 Copyright (c) Steve Scherf et al.
# Submitted via: FreeRIP 2.951 
#
DISCID=070e3a14
DTITLE=Luis Miguel - 20 Grandes Exitos
DYEAR=1986
DGENRE=Pop
TTITLE0=Palabra De Honor
TTITLE1=Recuerdos Encadenados
TTITLE2=Los Muchachos De Hoy
TTITLE3=Decidete
TTITLE4=Fiebre De Amor
TTITLE5=Este Amor
TTITLE6=Todo El Amor Del Mundo
TTITLE7=Directo Al Corazón
TTITLE8=Isabel
TTITLE9=Me Muero Por Ti
TTITLE10=Por Ti
TTITLE11=Un Rock And Roll Sono
TTITLE12=Mini Amor
TTITLE13=No Me Puedes Dejar Así
TTITLE14=Tu No Tienes Corazón
TTITLE15=1+1=2 Enamorados
TTITLE16=Marcela
TTITLE17=Ya Nunca Más
TTITLE18=La Juventud
TTITLE19=La Chica Del Bikini Azul
EXTD=
EXTT0=
EXTT1=
EXTT2=
EXTT3=
EXTT4=
EXTT5=
EXTT6=
EXTT7=
EXTT8=
EXTT9=
EXTT10=
EXTT11=
EXTT12=
EXTT13=
EXTT14=
EXTT15=
EXTT16=
EXTT17=
EXTT18=
EXTT19=
PLAYORDER=
